#!OML:ASF \\sashay\E\Suitcase\Project 1\Capture day 1\Session 1\Male1.ASF
:FULLY-SPECIFIED
:DEGREES
637
root -1.15024 17.6368 9.24328 5.55053 5.93974 -0.463794
lowerback 0.33512 -0.599034 0.409591
upperback -2.26574 -0.752701 1.78542
thorax -2.49285 -0.363744 1.62168
lowerneck -15.322 -1.51467 -3.26285
upperneck 27.0609 0.934051 -7.35512
head 11.41 -0.828769 -2.01583
rclavicle 1.29707e-014 -9.14409e-015
rhumerus -17.1357 -23.7262 -69.9727
rradius 22.1015
rwrist -12.1165
rhand -6.84342 17.5653
rfingers 7.12502
rthumb 19.0214 -11.5246
lclavicle 1.29707e-014 -9.14409e-015
lhumerus -36.0334 0.231555 84.1198
lradius 29.3257
lwrist -7.12338
lhand 1.29979 44.9121
lfingers 7.12502
lthumb 26.8348 73.0279
rfemur -7.44234 -2.90335 22.6963
rtibia 13.6197
rfoot -11.1846 -12.0104
rtoes 17.7643
lfemur -8.53354 -4.23707 -16.6762
ltibia 15.2848
lfoot -11.4729 3.27257
ltoes -4.4239
638
root -1.12046 17.6415 9.23908 5.85543 6.24133 -0.0945991
lowerback 0.133028 -0.674146 0.412008
upperback -2.19324 -0.858684 1.71013
thorax -2.30292 -0.418296 1.54175
lowerneck -15.7506 -1.51315 -3.35562
upperneck 27.0631 1.01123 -7.41842
head 11.5023 -0.819164 -2.01901
rclavicle 2.90723e-015 2.38542e-015
rhumerus -16.9046 -23.6394 -69.9521
rradius 21.9642
rwrist -12.1558
rhand -6.67136 18.1798
rfingers 7.12502
rthumb 19.1869 -10.8937
lclavicle 2.90723e-015 2.38542e-015
lhumerus -35.6034 0.1108 84.3069
lradius 29.3518
lwrist -7.27137
lhand 1.83624 44.8698
lfingers 7.12502
lthumb 27.348 72.9058
rfemur -7.7476 -3.95901 22.1988
rtibia 13.7278
rfoot -11.0758 -11.2844
rtoes 17.4832
lfemur -8.79416 -4.4468 -17.1769
ltibia 15.2255
lfoot -11.4083 3.17197
ltoes -4.36277
639
root -1.13489 17.6396 9.25523 5.66445 6.0057 -0.525215
lowerback 0.142465 -0.576243 0.663949
upperback -2.02099 -0.724511 1.86612
thorax -2.13555 -0.355066 1.55632
lowerneck -15.8615 -1.50946 -3.40883
upperneck 27.0069 1.02223 -7.37368
head 11.5034 -0.814221 -1.99169
rclavicle 5.45415e-015 -2.06736e-014
rhumerus -16.8197 -24.2715 -69.893
rradius 21.5919
rwrist -11.5718
rhand -6.56952 18.0111
rfingers 7.12502
rthumb 19.2848 -11.0527
lclavicle 5.45415e-015 -2.06736e-014
lhumerus -35.3331 -0.0133866 84.4161
lradius 29.4542
lwrist -7.17144
lhand 1.69951 45.1429
lfingers 7.12502
lthumb 27.2172 73.1994
rfemur -7.50276 -2.92023 22.7175
rtibia 13.6126
rfoot -11.1517 -12.0231
rtoes 17.7103
lfemur -8.62021 -4.32048 -16.6555
ltibia 15.2888
lfoot -11.4409 3.31152
ltoes -4.31075
640
root -1.10244 17.6444 9.24833 6.01865 6.39722 -0.0064548
lowerback -0.05823 -0.781893 0.608264
upperback -2.08383 -1.00587 1.65363
thorax -2.08371 -0.496793 1.37229
lowerneck -15.7893 -1.44718 -3.32306
upperneck 26.8886 1.072 -7.37573
head 11.4436 -0.778366 -1.99534
rclavicle -1.49834e-014 7.95139e-016
rhumerus -16.774 -24.2212 -70.0608
rradius 21.3815
rwrist -11.3168
rhand -6.76488 18.0058
rfingers 7.12502
rthumb 19.0969 -11.0767
lclavicle -1.49834e-014 7.95139e-016
lhumerus -35.2434 0.477042 84.1332
lradius 29.464
lwrist -8.12485
lhand 2.47794 45.2348
lfingers 7.12502
lthumb 27.9616 73.1724
rfemur -7.77905 -4.2448 22.0486
rtibia 13.577
rfoot -10.9351 -11.1548
rtoes 17.3449
lfemur -8.96112 -4.51508 -17.3363
ltibia 15.2882
lfoot -11.4104 3.10901
ltoes -4.32897
641
root -1.09612 17.6439 9.26508 5.87584 6.30114 -0.0689635
lowerback -7.9123e-005 -0.778104 0.697074
upperback -2.01894 -0.999373 1.6881
thorax -2.05079 -0.494921 1.35796
lowerneck -15.6343 -1.45333 -3.37487
upperneck 26.8016 1.04649 -7.329
head 11.3779 -0.783795 -1.96814
rclavicle 6.75868e-015 1.19271e-014
rhumerus -17.0837 -22.9951 -70.1983
rradius 21.8138
rwrist -12.3003
rhand -7.05629 17.1801
rfingers 7.12502
rthumb 18.8167 -11.9298
lclavicle 6.75868e-015 1.19271e-014
lhumerus -35.0583 0.468287 84.1609
lradius 29.2604
lwrist -8.29841
lhand 2.6701 45.1017
lfingers 7.12502
lthumb 28.1453 73.0092
rfemur -7.56518 -4.37752 22.0695
rtibia 13.5353
rfoot -10.8853 -10.9373
rtoes 17.2182
lfemur -8.71444 -4.51984 -17.3254
ltibia 15.288
lfoot -11.4596 3.23031
ltoes -4.27034
642
root -1.10551 17.6444 9.27852 5.81155 6.32496 -0.540516
lowerback 0.00839569 -0.769822 1.01902
upperback -1.9436 -0.982288 1.89144
thorax -1.98064 -0.490039 1.38526
lowerneck -15.7105 -1.50592 -3.48338
upperneck 26.7622 0.993048 -7.29071
head 11.3773 -0.814416 -1.94316
rclavicle -3.32964e-015 7.15625e-015
rhumerus -17.3382 -25.1482 -69.8382
rradius 21.5739
rwrist -10.1231
rhand -6.70188 18.0632
rfingers 7.12502
rthumb 19.1575 -11.0133
lclavicle -3.32964e-015 7.15625e-015
lhumerus -35.1657 -0.0790005 84.4797
lradius 29.8843
lwrist -7.60562
lhand 2.54388 45.5235
lfingers 7.12502
lthumb 28.0246 73.4508
rfemur -7.51669 -3.61411 22.6443
rtibia 13.5365
rfoot -11.0259 -11.6546
rtoes 17.4631
lfemur -8.65414 -4.35842 -16.7478
ltibia 15.2134
lfoot -11.4409 3.07898
ltoes -4.14436
643
root -1.08037 17.6443 9.27714 5.80926 6.51837 -0.131915
lowerback 0.322727 -0.823616 0.996399
upperback -2.01128 -1.04893 1.73697
thorax -2.22817 -0.524393 1.24676
lowerneck -15.6839 -1.56092 -3.5854
upperneck 26.7859 0.942002 -7.28487
head 11.3808 -0.847361 -1.93132
rclavicle 2.73329e-016 -2.8625e-014
rhumerus -17.4106 -24.9855 -69.7621
rradius 21.0292
rwrist -10.3426
rhand -7.2305 18.4563
rfingers 7.12502
rthumb 18.6491 -10.6697
lclavicle 2.73329e-016 -2.8625e-014
lhumerus -35.0151 -0.175887 84.5867
lradius 29.526
lwrist -7.7708
lhand 2.24403 44.6014
lfingers 7.12502
lthumb 27.738 72.5753
rfemur -7.4064 -4.6139 22.0911
rtibia 13.4469
rfoot -10.8441 -10.9276
rtoes 17.256
lfemur -8.56943 -4.50019 -17.3142
ltibia 15.1965
lfoot -11.4462 3.0152
ltoes -4.01497
